<svg width="16" height="16" viewBox="0 0 16 16" fill="none" xmlns="http://www.w3.org/2000/svg">
<path d="M15.5 7.99999C15.5001 9.76595 14.877 11.4753 13.7405 12.827C12.6041 14.1787 11.0271 15.086 9.28732 15.3891C7.54756 15.6922 5.75665 15.3717 4.23001 14.484C2.70337 13.5963 1.53893 12.1984 0.941785 10.5364C0.34464 8.8745 0.353095 7.05515 0.965659 5.39883C1.57822 3.74252 2.7556 2.35548 4.29043 1.48202C5.82525 0.608555 7.61907 0.304699 9.35593 0.623969C11.0928 0.943238 12.6613 1.86515 13.7852 3.22734C13.841 3.29012 13.8835 3.3635 13.9103 3.4431C13.9371 3.5227 13.9476 3.60688 13.9411 3.69062C13.9347 3.77436 13.9114 3.85594 13.8727 3.93048C13.834 4.00503 13.7807 4.07101 13.7159 4.12448C13.6511 4.17796 13.5763 4.21783 13.4957 4.24171C13.4152 4.2656 13.3307 4.27301 13.2473 4.26351C13.1638 4.254 13.0831 4.22777 13.01 4.18639C12.937 4.14501 12.873 4.08932 12.8219 4.02265C11.9026 2.90805 10.6256 2.14635 9.20812 1.86711C7.79061 1.58788 6.32013 1.80836 5.04684 2.49105C3.77356 3.17373 2.77611 4.27647 2.22419 5.61164C1.67226 6.94682 1.59995 8.43198 2.01955 9.81446C2.43915 11.1969 3.32475 12.3914 4.52569 13.1945C5.72663 13.9977 7.16874 14.36 8.60667 14.2198C10.0446 14.0796 11.3896 13.4455 12.4127 12.4255C13.4359 11.4055 14.0741 10.0625 14.2188 8.62499H8C7.83424 8.62499 7.67527 8.55914 7.55806 8.44193C7.44085 8.32472 7.375 8.16575 7.375 7.99999C7.375 7.83423 7.44085 7.67526 7.55806 7.55805C7.67527 7.44084 7.83424 7.37499 8 7.37499H14.875C15.0408 7.37499 15.1997 7.44084 15.3169 7.55805C15.4342 7.67526 15.5 7.83423 15.5 7.99999Z" fill="black"/>
</svg>
