<svg width="18" height="18" viewBox="0 0 18 18" fill="none" xmlns="http://www.w3.org/2000/svg">
<path fill-rule="evenodd" clip-rule="evenodd" d="M5.25 2.125C3.52434 2.125 2.125 3.52434 2.125 5.25V12.7533C2.125 14.4773 3.52268 15.875 5.24667 15.875H9.12533V10.375H8.24967C7.9045 10.375 7.62467 10.0952 7.62467 9.75C7.62467 9.40482 7.9045 9.125 8.24967 9.125H9.12533V8.21252C9.12533 6.64568 10.396 5.37502 11.9628 5.37502H12.7503C13.0955 5.37502 13.3753 5.65484 13.3753 6.00002C13.3753 6.3452 13.0955 6.62502 12.7503 6.62502H11.9628C11.0863 6.62502 10.3753 7.33603 10.3753 8.21252V9.125H12.7497C13.0949 9.125 13.3747 9.40482 13.3747 9.75C13.3747 10.0952 13.0949 10.375 12.7497 10.375H10.3753V15.875H12.7533C14.4774 15.875 15.875 14.4772 15.875 12.7542V5.24667C15.875 3.52268 14.4773 2.125 12.7533 2.125H5.25ZM9.75526 17.125H12.7533C15.1676 17.125 17.125 15.1678 17.125 12.7542V5.24667C17.125 2.83232 15.1677 0.875 12.7533 0.875H5.25C2.83399 0.875 0.875 2.83399 0.875 5.25V12.7533C0.875 15.1677 2.83232 17.125 5.24667 17.125H9.74539C9.74703 17.125 9.74868 17.125 9.75033 17.125C9.75197 17.125 9.75362 17.125 9.75526 17.125Z" fill="#282828"/>
</svg>
