<svg width="18" height="18" viewBox="0 0 18 18" fill="none" xmlns="http://www.w3.org/2000/svg">
<path fill-rule="evenodd" clip-rule="evenodd" d="M2.125 5.24667C2.125 3.52259 3.52193 2.125 5.24667 2.125H12.7542C14.4773 2.125 15.875 3.52184 15.875 5.24667V12.7542C15.875 14.4773 14.4782 15.875 12.7533 15.875H5.24667C3.52259 15.875 2.125 14.4781 2.125 12.7533V5.24667ZM12.7542 0.875H5.24667C2.8314 0.875 0.875 2.83241 0.875 5.24667V12.7533C0.875 15.1686 2.83241 17.125 5.24667 17.125H12.7533C15.1685 17.125 17.125 15.1677 17.125 12.7542V5.24667C17.125 2.83149 15.1677 0.875 12.7542 0.875ZM14.6022 4.76618C14.6022 5.43105 14.0633 5.97003 13.3984 5.97003C12.7335 5.97003 12.1945 5.43105 12.1945 4.76618C12.1945 4.1013 12.7335 3.56232 13.3984 3.56232C14.0633 3.56232 14.6022 4.1013 14.6022 4.76618ZM7.32081 7.32064C8.24831 6.39314 9.75207 6.39314 10.6796 7.32064C11.6071 8.24814 11.6071 9.7519 10.6796 10.6794C9.75207 11.6069 8.24831 11.6069 7.32081 10.6794C6.39332 9.7519 6.39332 8.24814 7.32081 7.32064ZM6.43693 6.43676C7.85258 5.02111 10.1478 5.02111 11.5635 6.43676C12.9791 7.85241 12.9791 10.1476 11.5635 11.5633C10.1478 12.9789 7.85258 12.9789 6.43693 11.5633C5.02128 10.1476 5.02128 7.85241 6.43693 6.43676Z" fill="#282828"/>
</svg>
