<svg width="18" height="18" viewBox="0 0 18 18" fill="none" xmlns="http://www.w3.org/2000/svg">
<path fill-rule="evenodd" clip-rule="evenodd" d="M2.125 5.25C2.125 3.52434 3.52434 2.125 5.25 2.125H12.7533C14.4773 2.125 15.875 3.52268 15.875 5.24667V12.7542C15.875 14.4772 14.4774 15.875 12.7533 15.875H5.24667C3.52268 15.875 2.125 14.4773 2.125 12.7533V5.25ZM12.7533 0.875H5.25C2.83399 0.875 0.875 2.83399 0.875 5.25V12.7533C0.875 15.1677 2.83232 17.125 5.24667 17.125H12.7533C15.1676 17.125 17.125 15.1678 17.125 12.7542V5.24667C17.125 2.83232 15.1677 0.875 12.7533 0.875ZM6.39176 8.24998C6.39176 7.9048 6.11194 7.62498 5.76676 7.62498C5.42159 7.62498 5.14176 7.9048 5.14176 8.24998V12.75C5.14176 13.0952 5.42159 13.375 5.76676 13.375C6.11194 13.375 6.39176 13.0952 6.39176 12.75V8.24998ZM10.641 8.87498C9.95038 8.87498 9.39103 9.43432 9.39103 10.125V12.75C9.39103 13.0952 9.11121 13.375 8.76603 13.375C8.42085 13.375 8.14103 13.0952 8.14103 12.75V10.125C8.14103 8.74397 9.26002 7.62498 10.641 7.62498C12.022 7.62498 13.141 8.74397 13.141 10.125V12.75C13.141 13.0952 12.8612 13.375 12.516 13.375C12.1709 13.375 11.891 13.0952 11.891 12.75V10.125C11.891 9.43432 11.3317 8.87498 10.641 8.87498ZM5.76668 6.45833C6.21541 6.45833 6.57918 6.09456 6.57918 5.64583C6.57918 5.1971 6.21541 4.83333 5.76668 4.83333C5.31795 4.83333 4.95418 5.1971 4.95418 5.64583C4.95418 6.09456 5.31795 6.45833 5.76668 6.45833Z" fill="#282828"/>
</svg>
