<svg width="24" height="20" viewBox="0 0 24 20" fill="none"
    xmlns="http://www.w3.org/2000/svg">
    <path d="M-5.25315e-05 10.0001C-5.25083e-05 9.73484 0.105304 9.48048 0.29284 9.29294C0.480376 9.10541 0.734731 9.00005 0.999948 9.00005L20.5862 9.00005L13.2924 1.70755C13.1995 1.61464 13.1258 1.50434 13.0756 1.38295C13.0253 1.26156 12.9994 1.13145 12.9994 1.00005C12.9994 0.868657 13.0253 0.738549 13.0756 0.617156C13.1258 0.495763 13.1995 0.385463 13.2924 0.292552C13.3854 0.199641 13.4957 0.125943 13.6171 0.0756598C13.7384 0.0253764 13.8686 -0.000504426 13.9999 -0.000504414C14.1313 -0.000504403 14.2615 0.0253764 14.3828 0.0756599C14.5042 0.125943 14.6145 0.199641 14.7074 0.292552L23.7074 9.29255C23.8004 9.38543 23.8742 9.49572 23.9245 9.61711C23.9748 9.73851 24.0007 9.86864 24.0007 10.0001C24.0007 10.1315 23.9748 10.2616 23.9245 10.383C23.8742 10.5044 23.8004 10.6147 23.7074 10.7076L14.7074 19.7076C14.5198 19.8952 14.2653 20.0006 13.9999 20.0006C13.7346 20.0006 13.4801 19.8952 13.2924 19.7076C13.1048 19.5199 12.9994 19.2654 12.9994 19.0001C12.9994 18.7347 13.1048 18.4802 13.2924 18.2926L20.5862 11.0001L0.999947 11.0001C0.734731 11.0001 0.480376 10.8947 0.29284 10.7072C0.105304 10.5196 -5.25547e-05 10.2653 -5.25315e-05 10.0001Z" fill="#F9F6ED"/>
</svg>
