<svg width="68" height="62" viewBox="0 0 68 62" fill="none" xmlns="http://www.w3.org/2000/svg">
<circle cx="27.5" cy="35.5" r="26.5" fill="#FF5A00"/>
<path d="M20.5789 14.7202L38.5476 4.56396L58.0789 14.7202V35.0327L38.5476 45.189L20.5789 35.0327V14.7202Z" fill="#F5EDCC"/>
<path d="M57.6875 12.9198L40.5 3.51551C40.0408 3.26176 39.5247 3.12866 39 3.12866C38.4753 3.12866 37.9592 3.26176 37.5 3.51551L20.3125 12.9237C19.8217 13.1923 19.4119 13.5877 19.1261 14.0687C18.8402 14.5497 18.6888 15.0986 18.6875 15.6581V34.3378C18.6888 34.8973 18.8402 35.4462 19.1261 35.9272C19.4119 36.4082 19.8217 36.8036 20.3125 37.0721L37.5 46.4803C37.9592 46.7341 38.4753 46.8672 39 46.8672C39.5247 46.8672 40.0408 46.7341 40.5 46.4803L57.6875 37.0721C58.1783 36.8036 58.5881 36.4082 58.8739 35.9272C59.1598 35.4462 59.3112 34.8973 59.3125 34.3378V15.66C59.3123 15.0995 59.1613 14.5494 58.8754 14.0673C58.5895 13.5852 58.1792 13.1888 57.6875 12.9198ZM39 6.24988L54.6914 14.8436L48.877 18.0272L33.1836 9.43348L39 6.24988ZM39 23.4374L23.3086 14.8436L29.9297 11.2186L45.6211 19.8124L39 23.4374ZM21.8125 17.578L37.4375 26.1288V42.8846L21.8125 34.3397V17.578ZM56.1875 34.3319L40.5625 42.8846V26.1366L46.8125 22.7167V29.6874C46.8125 30.1018 46.9771 30.4992 47.2701 30.7922C47.5632 31.0853 47.9606 31.2499 48.375 31.2499C48.7894 31.2499 49.1868 31.0853 49.4799 30.7922C49.7729 30.4992 49.9375 30.1018 49.9375 29.6874V21.0057L56.1875 17.578V34.33V34.3319Z" fill="#282828"/>
<circle cx="4" cy="45" r="4" fill="#0000FE"/>
<circle cx="66" cy="21" r="2" fill="#0000FE"/>
</svg>
