<svg width="21" height="24" viewBox="0 0 21 24" fill="none" xmlns="http://www.w3.org/2000/svg">
<path d="M19.7489 6.94031C19.119 4.4785 17.7651 2.83512 15.9368 2.3141L11.0397 0.918517C9.21139 0.397499 7.1945 1.08026 5.36152 2.8402C3.64868 4.48436 2.27138 6.91357 1.48637 9.66821C0.701353 12.4229 0.591192 15.2132 1.18001 17.5133C1.80988 19.9751 3.16386 21.6185 4.99213 22.1395L9.88927 23.5351C11.7175 24.0561 13.7344 23.3733 15.5674 21.6134C17.2802 19.9692 18.6575 17.54 19.4426 14.7854C20.2276 12.0307 20.3377 9.24039 19.7489 6.94031ZM18.0213 13.4979L14.7566 12.5675C15.1701 10.8744 15.3079 9.12579 15.1646 7.38889L18.2855 8.27828C18.5209 9.8213 18.4498 11.6344 18.0213 13.4979ZM17.7804 6.3694L14.8493 5.53409C14.6769 4.84552 14.422 4.18028 14.0902 3.55281L15.4716 3.94648C16.4918 4.23723 17.2764 5.12267 17.7804 6.3694ZM3.11875 10.1334C4.50561 5.26687 7.92184 1.79496 10.5745 2.5509C13.2271 3.30684 14.2999 8.05804 12.913 12.9246C11.5262 17.7911 8.10994 21.263 5.45732 20.5071C2.8047 19.7511 1.73189 14.9999 3.11875 10.1334ZM10.3545 21.9027L8.97613 21.5099C9.58889 21.1516 10.1561 20.7206 10.6656 20.2264L13.5967 21.0617C12.5082 21.8546 11.3747 22.1934 10.3545 21.9027ZM15.0291 19.7049L11.9092 18.8158C12.9466 17.4154 13.7514 15.8568 14.2924 14.2001L17.5572 15.1305C16.9379 16.9396 16.0425 18.5178 15.0291 19.7049Z" fill="#F9F6ED"/>
</svg>
