<svg width="58" height="72" viewBox="0 0 58 72" fill="none" xmlns="http://www.w3.org/2000/svg">
<circle cx="26.5" cy="45.5" r="26.5" fill="#FF5A00"/>
<circle cx="52" cy="51" r="4" fill="#0000FE"/>
<circle cx="32" cy="7" r="3" fill="#0000FE"/>
<circle cx="21" cy="2" r="2" fill="#0000FE"/>
<path d="M38.2667 25.3333L50 16.2666L53.7333 18.9333L44.6667 31.7333L43.6 38.6666L26 55.7333H24.4L14.2667 46.6666V43.4666L30.8 26.9333L38.2667 25.3333Z" fill="#F5EDCC" stroke="#282828"/>
<path d="M56.0612 19.9389L50.0612 13.9389C49.7798 13.6574 49.398 13.4993 49 13.4993C48.602 13.4993 48.2202 13.6574 47.9387 13.9389C47.6573 14.2203 47.4992 14.6021 47.4992 15.0001C47.4992 15.3981 47.6573 15.7799 47.9387 16.0614L48.2162 16.337L37.8719 24.0957L30.7056 25.5301C30.4155 25.5882 30.1488 25.7304 29.9387 25.9389L14.3125 41.5614C13.4686 42.4053 12.9946 43.5498 12.9946 44.7432C12.9946 45.9367 13.4686 47.0812 14.3125 47.9251L22.075 55.6876C22.9189 56.5315 24.0635 57.0055 25.2569 57.0055C26.4503 57.0055 27.5948 56.5315 28.4387 55.6876L44.0612 40.067C44.2702 39.8573 44.4124 39.5905 44.47 39.3001L45.9044 32.1339L53.6631 21.7895L53.9387 22.067C54.0781 22.2063 54.2436 22.3169 54.4257 22.3923C54.6077 22.4677 54.8029 22.5066 55 22.5066C55.1971 22.5066 55.3923 22.4677 55.5743 22.3923C55.7564 22.3169 55.9219 22.2063 56.0612 22.067C56.2006 21.9276 56.3112 21.7622 56.3866 21.5801C56.462 21.398 56.5008 21.2028 56.5008 21.0057C56.5008 20.8086 56.462 20.6135 56.3866 20.4314C56.3112 20.2493 56.2006 20.0838 56.0612 19.9445V19.9389ZM28 32.1207L37.8794 42.0001L29.5 50.3795L19.6206 40.5001L28 32.1207ZM25.2569 54.0001C25.0601 54.0006 24.8651 53.9621 24.6832 53.8868C24.5014 53.8115 24.3363 53.7009 24.1975 53.5614L16.4387 45.8026C16.1577 45.5213 15.9998 45.1399 15.9998 44.7423C15.9998 44.3446 16.1577 43.9633 16.4387 43.682L17.5 42.6207L27.3794 52.5001L26.3125 53.5614C26.0323 53.8412 25.6529 53.9989 25.2569 54.0001ZM43.3 30.6001C43.1655 30.779 43.0732 30.9861 43.03 31.2057L41.6181 38.2614L40 39.8795L30.1206 30.0001L31.7387 28.382L38.7944 26.9701C39.014 26.9269 39.2211 26.8346 39.4 26.7001L50.3594 18.4801L51.52 19.6407L43.3 30.6001Z" fill="#282828"/>
</svg>
