<svg width="61" height="64" viewBox="0 0 61 64" fill="none" xmlns="http://www.w3.org/2000/svg">
<circle cx="27.5" cy="37.5" r="26.5" fill="#FF5A00"/>
<path d="M27.1731 5.11902L29.4412 4.552L47.5858 7.95411C48.3418 8.71014 49.8539 10.3356 49.8539 10.7892C49.8539 11.2428 44.1837 31.7689 41.3486 41.9752L21.5029 37.4391L19.2349 36.305L27.1731 5.11902Z" fill="#F5EDCC" stroke="#282828"/>
<path d="M40.1091 42.9312L19.6445 37.4477C18.9601 37.2643 18.5561 36.5646 18.7395 35.8802L26.8079 5.76838C26.8789 5.50346 27.0441 5.24014 27.274 5.08877L28.7623 3.94959C29.0879 3.70559 29.4885 3.62363 29.8858 3.7301L48.1649 8.62795C48.5401 8.72851 48.8681 9.00568 49.0281 9.37981L49.7475 11.1105C49.8428 11.3727 49.8822 11.6672 49.8112 11.9321L41.7428 42.0439C41.5153 42.7164 40.8155 43.1205 40.1091 42.9312ZM27.691 6.00499L19.6225 36.1168C19.5693 36.3155 19.6824 36.5114 19.8811 36.5647L40.3457 42.0481C40.5444 42.1014 40.7624 41.9942 40.8156 41.7955L48.8841 11.6837C48.9077 11.5954 48.9034 11.5232 48.877 11.4451L48.1577 9.71444C48.1151 9.60839 48.0165 9.53466 47.9062 9.50508L29.6271 4.60723C29.5168 4.57766 29.3945 4.59223 29.3047 4.66279L27.8164 5.80197C27.7545 5.85637 27.7087 5.93876 27.691 6.00499Z" fill="black" stroke="#282828" stroke-width="2"/>
<mask id="path-4-inside-1_155_733" fill="white">
<path d="M38.2438 44.0642L20.6492 39.3497C20.1194 39.2078 19.7902 38.67 19.9204 38.1843L20.1392 37.3675L21.0223 37.6041L20.8034 38.421C20.8034 38.421 20.8196 38.449 20.8858 38.4667L38.4805 43.1812C38.5246 43.193 38.5747 43.1828 38.5806 43.1607L38.7995 42.3439L39.6825 42.5805L39.4636 43.3973C39.3276 43.905 38.7737 44.2062 38.2438 44.0642Z"/>
</mask>
<path d="M38.2438 44.0642L20.6492 39.3497C20.1194 39.2078 19.7902 38.67 19.9204 38.1843L20.1392 37.3675L21.0223 37.6041L20.8034 38.421C20.8034 38.421 20.8196 38.449 20.8858 38.4667L38.4805 43.1812C38.5246 43.193 38.5747 43.1828 38.5806 43.1607L38.7995 42.3439L39.6825 42.5805L39.4636 43.3973C39.3276 43.905 38.7737 44.2062 38.2438 44.0642Z" fill="black"/>
<path d="M20.1392 37.3675L31.5273 -5.1332L-10.9735 -16.5212L-22.3615 25.9795L20.1392 37.3675ZM21.0223 37.6041L63.523 48.9922L74.911 6.49145L32.4103 -4.89659L21.0223 37.6041ZM20.8034 38.421L-21.6973 27.0329L-26.4142 44.6365L-17.3024 60.4197L20.8034 38.421ZM38.7995 42.3439L50.1875 -0.156867L7.68676 -11.5449L-3.70127 30.9558L38.7995 42.3439ZM39.6825 42.5805L82.1832 53.9685L93.5713 11.4678L51.0705 0.0797443L39.6825 42.5805ZM39.4636 43.3973L81.9644 54.7853L39.4636 43.3973ZM49.6319 1.56348L32.0372 -3.15099L9.26115 81.8505L26.8558 86.565L49.6319 1.56348ZM32.0372 -3.15099C52.3545 2.293 69.2616 24.0435 62.4211 49.5724L-22.5804 26.7963C-29.6811 53.2966 -12.1158 76.1225 9.26115 81.8505L32.0372 -3.15099ZM62.4211 49.5724L62.64 48.7556L-22.3615 25.9795L-22.5804 26.7963L62.4211 49.5724ZM8.75119 79.8683L9.63423 80.1049L32.4103 -4.89659L31.5273 -5.1332L8.75119 79.8683ZM-21.4785 26.2161L-21.6973 27.0329L63.3041 49.809L63.523 48.9922L-21.4785 26.2161ZM20.8034 38.421C-17.3024 60.4197 -17.2863 60.4476 -17.2701 60.4755C-17.2648 60.4849 -17.2486 60.5128 -17.2377 60.5314C-17.2161 60.5686 -17.1944 60.6058 -17.1726 60.6431C-17.129 60.7175 -17.0852 60.792 -17.041 60.8665C-16.9526 61.0155 -16.863 61.1645 -16.7722 61.3136C-16.5906 61.6117 -16.4041 61.9098 -16.2127 62.2077C-15.8298 62.8036 -15.4275 63.3979 -15.0054 63.9892C-14.16 65.1733 -13.2405 66.3371 -12.2445 67.4704C-10.2399 69.7516 -7.99467 71.8308 -5.5389 73.6681C-0.560207 77.393 4.67376 79.6748 9.49776 80.9674L32.2738 -4.03404C37.0316 -2.7592 42.2244 -0.500252 47.1784 3.20621C49.6219 5.03432 51.8589 7.10546 53.8584 9.38078C54.8518 10.5113 55.7696 11.6727 56.6138 12.8552C57.0354 13.4457 57.4372 14.0394 57.8199 14.6349C58.0112 14.9326 58.1976 15.2305 58.3791 15.5285C58.4699 15.6775 58.5595 15.8265 58.6478 15.9755C58.692 16.0499 58.7359 16.1244 58.7794 16.1989C58.8012 16.2361 58.8229 16.2733 58.8446 16.3105C58.8554 16.3292 58.8716 16.3571 58.877 16.3664C58.8931 16.3943 58.9092 16.4222 20.8034 38.421ZM9.49776 80.9674L27.0924 85.6819L49.8685 0.680439L32.2738 -4.03404L9.49776 80.9674ZM27.0924 85.6819C33.5606 87.415 40.5025 87.6948 47.3656 86.2904C50.7719 85.5934 56.1301 84.0815 61.8684 80.4994C67.3206 77.0959 77.1692 69.1491 81.0813 54.5487L-3.92014 31.7726C-0.0109474 17.1833 9.82916 9.24607 15.2689 5.85033C20.9948 2.27597 26.3366 0.77004 29.7242 0.0768557C36.5497 -1.31981 43.4445 -1.04086 49.8685 0.680439L27.0924 85.6819ZM81.0813 54.5487L81.3002 53.7319L-3.70127 30.9558L-3.92014 31.7726L81.0813 54.5487ZM27.4114 84.8446L28.2945 85.0812L51.0705 0.0797443L50.1875 -0.156867L27.4114 84.8446ZM-2.81823 31.1924L-3.03709 32.0093L81.9644 54.7853L82.1832 53.9685L-2.81823 31.1924ZM-3.03709 32.0093C3.62534 7.1447 28.6351 -4.06258 49.6319 1.56348L26.8558 86.565C48.9122 92.4749 75.0298 80.6654 81.9644 54.7853L-3.03709 32.0093Z" fill="#282828" mask="url(#path-4-inside-1_155_733)"/>
<path d="M46.5153 9.13248L31.0179 4.97995C29.9141 4.68419 29.2736 3.54246 29.5693 2.43865L29.6285 2.21789C29.7188 1.79253 30.1607 1.55603 30.5581 1.66251L48.5722 6.48938C48.9917 6.60177 49.2341 7.02164 49.1217 7.44108L49.0566 7.68392C48.7668 8.76565 47.6191 9.42824 46.5153 9.13248ZM30.454 2.58104L30.4303 2.66935C30.2647 3.28748 30.6364 3.93128 31.2324 4.09099L46.7299 8.24352C47.348 8.40915 47.9697 8.03153 48.1353 7.4134L48.159 7.3251L30.454 2.58104Z" fill="black" stroke="#282828" stroke-width="2"/>
<path d="M38.3474 12.9143L27.3314 9.96253C27.0885 9.89746 26.9431 9.64554 27.0082 9.4027C27.0732 9.15987 27.3251 9.01442 27.568 9.07949L38.584 12.0312C38.8268 12.0963 38.9723 12.3482 38.9072 12.591C38.8421 12.8339 38.5902 12.9793 38.3474 12.9143Z" fill="black" stroke="#282828" stroke-width="2"/>
<path d="M37.6661 37.0708C37.4232 37.0057 37.2778 36.7538 37.3429 36.511L39.36 28.983C39.425 28.7402 39.677 28.5947 39.9198 28.6598C40.1626 28.7249 40.3081 28.9768 40.243 29.2196L38.2259 36.7476C38.1608 36.9904 37.9089 37.1359 37.6661 37.0708Z" fill="black" stroke="#282828" stroke-width="2"/>
<path d="M40.7876 25.421C40.5448 25.356 40.3993 25.1041 40.4644 24.8612L41.0796 22.5653C41.1446 22.3225 41.3966 22.177 41.6394 22.2421C41.8822 22.3072 42.0277 22.5591 41.9626 22.8019L41.3474 25.0978C41.2824 25.3407 41.0304 25.4861 40.7876 25.421Z" fill="black" stroke="#282828" stroke-width="2"/>
<circle cx="4" cy="47" r="4" fill="#0000FE"/>
<circle cx="59" cy="23" r="2" fill="#0000FE"/>
</svg>
