<svg width="68" height="60" viewBox="0 0 68 60" fill="none" xmlns="http://www.w3.org/2000/svg">
<circle cx="26.5" cy="30.5" r="26.5" fill="#FF5A00"/>
<g clip-path="url(#clip0_155_534)">
<path d="M33.4783 44.31C15.7543 37.6636 16.1236 23.4474 18.5237 17.1702L61.7258 28.2477C59.6949 36.3711 51.2022 50.9564 33.4783 44.31Z" fill="#F5EDCC"/>
<path d="M62.2818 26.9335L18.1442 15.1069C17.754 15.0023 17.3382 15.057 16.9884 15.259C16.6385 15.461 16.3832 15.7937 16.2787 16.1839C14.6058 22.4271 15.4816 29.0792 18.7133 34.6767C21.945 40.2742 27.268 44.3587 33.5112 46.0315C39.7544 47.7044 46.4065 46.8286 52.004 43.5969C57.6015 40.3652 61.686 35.0422 63.3588 28.799C63.4634 28.4088 63.4087 27.993 63.2067 27.6432C63.0047 27.2933 62.672 27.0381 62.2818 26.9335ZM27.4623 31.3837L37.396 25.6485L34.425 36.7362C31.6266 35.6784 29.204 33.816 27.4623 31.3837ZM25.9396 28.7464C24.704 26.0218 24.3024 22.9925 24.7856 20.0402L35.8733 23.0111L25.9396 28.7464ZM40.3385 26.4369L46.0737 36.3706C43.3492 37.6062 40.3199 38.0078 37.3675 37.5247L40.3385 26.4369ZM48.711 34.8479L42.9758 24.9143L54.0635 27.8852C53.0058 30.6836 51.1433 33.1062 48.711 34.8479ZM34.2997 43.089C29.0949 41.6878 24.6126 38.3699 21.7524 33.8013C18.8921 29.2327 17.8655 23.7514 18.8785 18.4574L21.832 19.2488C21.0226 23.7583 21.9361 28.4073 24.3918 32.2751C26.8475 36.1429 30.6663 38.9474 35.0917 40.1332C39.5171 41.319 44.2265 40.7995 48.2871 38.6778C52.3477 36.556 55.4634 32.9866 57.0171 28.6766L59.9706 29.468C58.2009 34.5593 54.5712 38.7929 49.8098 41.3193C45.0484 43.8457 39.5078 44.4779 34.2997 43.089Z" fill="#282828"/>
</g>
<circle cx="4" cy="44" r="4" fill="#0000FE"/>
<circle cx="58" cy="13" r="2" fill="#0000FE"/>
<defs>
<clipPath id="clip0_155_534">
<rect width="48.741" height="48.741" fill="white" transform="translate(20.6151) rotate(15)"/>
</clipPath>
</defs>
</svg>
