<svg width="72" height="63" viewBox="0 0 72 63" fill="none" xmlns="http://www.w3.org/2000/svg">
<circle cx="27.5" cy="36.5" r="26.5" fill="#FF5A00"/>
<path d="M21 3.0713C21 1.37507 22.3751 0 24.0713 0H39.6913C40.5058 0 41.287 0.323583 41.863 0.899563L46.3382 5.37478L50.9531 10.6489C51.443 11.2088 51.713 11.9274 51.713 12.6714V33.7843C51.713 35.4805 50.3379 36.8556 48.6417 36.8556H24.0713C22.3751 36.8556 21 35.4805 21 33.7843V3.0713Z" fill="#F5EDCC"/>
<path fill-rule="evenodd" clip-rule="evenodd" d="M24.0713 33.7843H48.6417V12.6714L44.0942 7.47419L39.6913 3.0713L24.0713 3.0713V33.7843ZM46.3382 5.37478L41.863 0.899563C41.287 0.323583 40.5058 0 39.6913 0H24.0713C22.3751 0 21 1.37507 21 3.0713V33.7843C21 35.4805 22.3751 36.8556 24.0713 36.8556H48.6417C50.3379 36.8556 51.713 35.4805 51.713 33.7843V12.6714C51.713 11.9274 51.443 11.2088 50.9531 10.6489L46.3382 5.37478Z" fill="#282828"/>
<path d="M31.7495 46.0695V9.98169H51.713L61.6947 19.9634V46.0695H31.7495Z" fill="#F5EDCC"/>
<path d="M63.549 18.877L52.7995 8.1274C52.6568 7.98484 52.4873 7.87179 52.3009 7.79472C52.1145 7.71765 51.9147 7.67806 51.713 7.67822H33.2852C32.4706 7.67822 31.6894 8.00181 31.1135 8.57779C30.5375 9.15377 30.2139 9.93496 30.2139 10.7495V44.5338C30.2139 45.3484 30.5375 46.1296 31.1135 46.7056C31.6894 47.2815 32.4706 47.6051 33.2852 47.6051H60.9269C61.7415 47.6051 62.5227 47.2815 63.0986 46.7056C63.6746 46.1296 63.9982 45.3484 63.9982 44.5338V19.9634C63.9984 19.7617 63.9588 19.5619 63.8817 19.3755C63.8046 19.1891 63.6916 19.0197 63.549 18.877ZM53.2486 12.9205L58.7559 18.4278H53.2486V12.9205ZM60.9269 44.5338H33.2852V10.7495H50.1773V19.9634C50.1773 20.3707 50.3391 20.7613 50.6271 21.0493C50.9151 21.3373 51.3057 21.4991 51.713 21.4991H60.9269V44.5338Z" fill="#282828"/>
<circle cx="4" cy="26" r="4" fill="#0000FE"/>
<circle cx="68" cy="5" r="3" fill="#0000FE"/>
</svg>
