<svg width="53" height="72" viewBox="0 0 53 72" fill="none" xmlns="http://www.w3.org/2000/svg">
<circle cx="26.5" cy="45.5" r="26.5" fill="#FF5A00"/>
<circle cx="47" cy="61" r="4" fill="#0000FE"/>
<circle cx="32" cy="7" r="3" fill="#0000FE"/>
<circle cx="21" cy="2" r="2" fill="#0000FE"/>
<path d="M18.6 52.2L13.8 15H40.8001L36 52.2H18.6Z" fill="#F5EDCC" stroke="#282828"/>
<path d="M41.625 14.0044C41.4839 13.8454 41.3107 13.7182 41.1167 13.6313C40.9228 13.5443 40.7126 13.4996 40.5 13.5H13.5C13.2872 13.4999 13.0767 13.5452 12.8827 13.6327C12.6887 13.7202 12.5155 13.848 12.3747 14.0077C12.2339 14.1673 12.1286 14.355 12.066 14.5585C12.0033 14.7619 11.9847 14.9763 12.0113 15.1875L16.3519 51.375C16.4433 52.1005 16.7965 52.7676 17.3451 53.251C17.8938 53.7343 18.6001 54.0007 19.3313 54H34.6688C35.4025 54.0002 36.111 53.7315 36.66 53.2446C37.209 52.7578 37.5606 52.0867 37.6482 51.3581L41.9888 15.1875C42.0158 14.9758 41.9974 14.7607 41.9346 14.5567C41.8719 14.3526 41.7663 14.1644 41.625 14.0044ZM38.8125 16.5L38.2688 21H15.7313L15.1875 16.5H38.8125ZM34.6688 51H19.3313L16.0913 24H37.9088L34.6688 51Z" fill="#282828"/>
</svg>
