<svg width="40" height="40" viewBox="0 0 40 40" fill="none" xmlns="http://www.w3.org/2000/svg">
<mask id="mask0_21_2184" style="mask-type:luminance" maskUnits="userSpaceOnUse" x="0" y="0" width="41" height="40">
<path d="M32.0001 0H8.00012C3.58184 0 0.00012207 3.58172 0.00012207 8V32C0.00012207 36.4183 3.58184 40 8.00012 40H32.0001C36.4184 40 40.0001 36.4183 40.0001 32V8C40.0001 3.58172 36.4184 0 32.0001 0Z" fill="white"/>
</mask>
<g mask="url(#mask0_21_2184)">
<path d="M32.0001 0H8.00012C3.58184 0 0.00012207 3.58172 0.00012207 8V32C0.00012207 36.4183 3.58184 40 8.00012 40H32.0001C36.4184 40 40.0001 36.4183 40.0001 32V8C40.0001 3.58172 36.4184 0 32.0001 0Z" fill="white"/>
<path d="M24.0001 0H16.0001C7.16357 0 0.00012207 7.16344 0.00012207 16V24C0.00012207 32.8366 7.16357 40 16.0001 40H24.0001C32.8367 40 40.0001 32.8366 40.0001 24V16C40.0001 7.16344 32.8367 0 24.0001 0Z" fill="#FFF8EE"/>
<path d="M29.5343 20.8043C29.5342 20.804 29.5342 20.8036 29.5341 20.8034C29.5341 20.8025 29.5329 20.8023 29.5326 20.8015C29.5197 20.769 29.5049 20.7374 29.4882 20.7068C29.4802 20.6918 29.4702 20.6779 29.4622 20.6629C29.4532 20.6489 29.4452 20.6339 29.4352 20.6199C29.4222 20.5999 29.4072 20.5809 29.3932 20.5619C29.3872 20.5539 29.3812 20.5459 29.3742 20.5379C29.3602 20.5199 29.3452 20.5039 29.3292 20.4879C29.3212 20.4789 29.3142 20.4699 29.3052 20.4609C29.2922 20.4479 29.2772 20.4349 29.2632 20.4229C29.2522 20.4119 29.2402 20.4009 29.2282 20.3909C29.2172 20.3819 29.2041 20.3729 29.1921 20.3639C29.1771 20.3519 29.1611 20.3399 29.1451 20.3289C29.1351 20.3229 29.1262 20.3179 29.1162 20.3119C29.0972 20.2999 29.0772 20.2869 29.0562 20.2759C29.0482 20.2719 29.0402 20.2689 29.0322 20.2649C29.0092 20.2529 28.9871 20.2418 28.9641 20.2328C28.9511 20.2268 28.9381 20.2229 28.9251 20.2179C28.9061 20.2109 28.8872 20.2039 28.8682 20.1979C28.8342 20.1879 28.8001 20.1789 28.7661 20.1719C28.7612 20.1709 28.7562 20.1709 28.7522 20.1699C28.7222 20.1639 28.6922 20.1599 28.6612 20.1569C28.6502 20.1549 28.6391 20.1549 28.6281 20.1549C28.6051 20.1529 28.5812 20.1509 28.5582 20.1509C28.5422 20.1509 28.5271 20.1529 28.5111 20.1529C28.4931 20.1539 28.4741 20.1549 28.4551 20.1559C28.4361 20.1579 28.4172 20.1619 28.3982 20.1639C28.3832 20.1669 28.3682 20.1679 28.3542 20.1709C28.3302 20.1759 28.3071 20.1819 28.2831 20.1889C28.2731 20.1909 28.2631 20.1929 28.2531 20.1959C28.2221 20.2059 28.1921 20.2169 28.1621 20.2289C28.1601 20.2299 28.1572 20.2299 28.1552 20.2309L28.1532 20.2319C28.1512 20.2329 28.1502 20.2329 28.1482 20.2339L22.4062 22.6078C21.8682 22.8308 21.6112 23.4479 21.8342 23.9869C21.9452 24.2559 22.1552 24.4549 22.4052 24.5589C22.6552 24.6619 22.9442 24.6709 23.2132 24.5589C24.423 24.0588 25.311 25.1959 24.2217 25.9219C22.5732 27.0207 20.5072 27.4928 18.4172 27.0759C15.8992 26.5729 13.7992 24.8589 12.7982 22.4909C12.5712 21.9539 11.9512 21.7029 11.4142 21.9289C10.8772 22.1559 10.6262 22.7759 10.8532 23.3129C11.8722 25.7239 13.7862 27.6019 16.1532 28.5839C16.7442 28.8299 17.3631 29.0189 18.0031 29.1469C21.1411 29.7729 24.2339 28.8265 26.4636 26.8547C27.5096 25.9297 29.4253 26.0677 29.9592 27.3578C30.1812 27.8968 30.7992 28.1539 31.3382 27.9309C31.8772 27.7079 32.1332 27.0909 31.9102 26.5519L29.5343 20.8043Z" fill="#FF5A00"/>
<path d="M11.4661 19.1789C11.4801 19.2109 11.4951 19.2439 11.5121 19.2749C11.5201 19.2909 11.5301 19.3049 11.5381 19.3199C11.5471 19.3339 11.5551 19.3489 11.5641 19.3629C11.5781 19.3829 11.5931 19.4019 11.6071 19.4209C11.6131 19.4289 11.6191 19.4369 11.6251 19.4449C11.6401 19.4619 11.6551 19.4789 11.6701 19.4949C11.6791 19.5039 11.6861 19.5129 11.6951 19.5209C11.7081 19.5349 11.7231 19.5469 11.7371 19.5599C11.7481 19.5709 11.7601 19.5809 11.7721 19.5909C11.7831 19.6009 11.7961 19.6089 11.8081 19.6179C11.8231 19.6299 11.8391 19.6419 11.8551 19.6529C11.8641 19.6589 11.8741 19.6649 11.8841 19.6709C11.9031 19.6829 11.9231 19.6949 11.9441 19.7059C11.9521 19.7109 11.9601 19.7139 11.9681 19.7179C11.9901 19.7289 12.0131 19.7399 12.0361 19.7499C12.0491 19.7549 12.0621 19.7599 12.0751 19.7639C12.0941 19.7709 12.1131 19.7789 12.1321 19.7849C12.1651 19.7949 12.2001 19.8039 12.2341 19.8109C12.2381 19.8119 12.2431 19.8119 12.2481 19.8129C12.2781 19.8179 12.3081 19.8229 12.3381 19.8259C12.3501 19.8269 12.3611 19.8269 12.3721 19.8279C12.3951 19.8299 12.4181 19.8309 12.4421 19.8309C12.4581 19.8309 12.4731 19.8299 12.4891 19.8289C12.5071 19.8289 12.5261 19.8279 12.5451 19.8259C12.5641 19.8239 12.5831 19.8209 12.6021 19.8179C12.6171 19.8159 12.6321 19.8139 12.6461 19.8109C12.6701 19.8069 12.6931 19.7999 12.7171 19.7939C12.7271 19.7909 12.7371 19.7889 12.7471 19.7859C12.7781 19.7769 12.8081 19.7659 12.8371 19.7539C12.8398 19.753 12.8425 19.7521 12.8445 19.7512C12.8449 19.751 12.8454 19.7509 12.8458 19.7509C12.8466 19.7509 12.8474 19.7505 12.8481 19.7501C12.8487 19.7497 12.8495 19.7494 12.8503 19.7492C12.8515 19.7489 12.8527 19.7487 12.8538 19.7482L18.5941 17.3749C19.1321 17.1519 19.3891 16.5349 19.1661 15.9959C19.0551 15.7259 18.8441 15.5279 18.5951 15.4239C18.3451 15.3199 18.0561 15.3119 17.7871 15.4229C16.5773 15.923 15.6892 14.7859 16.7786 14.0599C18.4271 12.9612 20.4931 12.4894 22.5831 12.9069C25.1011 13.4089 27.2011 15.1229 28.2021 17.4919C28.4291 18.0289 29.0481 18.2799 29.5861 18.0529C30.1231 17.8259 30.3741 17.2069 30.1471 16.6699C29.1281 14.2579 27.2131 12.3799 24.8471 11.3979C24.2561 11.1529 23.6371 10.9639 22.9971 10.8359C19.8594 10.2092 16.7664 11.1552 14.5368 13.1271C13.4909 14.052 11.5748 13.9141 11.0411 12.6239C10.8191 12.0849 10.2011 11.8289 9.66211 12.0519C9.12311 12.2749 8.86712 12.8919 9.09012 13.4309L11.4661 19.1789Z" fill="#FF5A00"/>
</g>
</svg>
